<svg xmlns="http://www.w3.org/2000/svg" width="20" height="21" viewBox="0 0 20 21"><path fill="#1b1d21" d="M9.83.028c2.62 0 4.778 1.99 5.043 4.54h.074c1.797 0 3.3 1.36 3.82 3.73h0l.8 6.286c.463 3.96-1.79 6.167-5.563 6.167h0-8.348c-4.078 0-6.162-1.958-5.494-6.41h0l.784-6.082c.433-2.34 1.976-3.69 3.813-3.69h0c.122-1.153.636-2.236 1.466-3.063A5.07 5.07 0 0 1 9.831.028zm5.117 6.04H4.77c-1.098 0-2.034.818-2.332 2.42h0l-.78 6.057c-.522 3.48.78 4.704 4.01 4.704h8.348c2.98 0 4.5-1.54 4.043-4.72h0L17.3 8.555c-.363-1.65-1.29-2.487-2.343-2.487h0zm-2.15 2.784a.75.75 0 0 1 .102 1.493l-.102.007h-.046a.75.75 0 0 1-.102-1.493l.102-.007h.046zm-5.83 0a.75.75 0 0 1 .102 1.493l-.102.007H6.92a.75.75 0 0 1-.102-1.493l.102-.007h.046zm2.862-7.324a3.57 3.57 0 0 0-3.546 3.04h7.08c-.256-1.72-1.74-3.04-3.534-3.04z"/></svg>