<svg xmlns="http://www.w3.org/2000/svg" width="22" height="24" viewBox="0 0 22 24">
  <path fill="#11142D" d="M12.855,20.9 C12.4639,22.1478 11.3077,22.997 10,22.997 C8.6924,22.997 7.53619,22.1478 7.14502,20.9 C8.039,20.966 8.989,21 10,21 C11.011,21 11.961,20.966 12.855,20.9 Z M10,-1 C14.4182815,-1 18,2.58172202 18,7 L18,7 L18,10 C18,11.1184646 18.3694847,11.8656448 19.2498379,12.8633784 L19.2498379,12.8633784 L19.9126361,13.6024335 L20.1063996,13.8323989 C20.6922295,14.552011 21,15.2050716 21,16 C21,17.8400866 18.7827241,19.0712173 15.1958818,19.6392323 L15.1958818,19.6392323 L14.6182804,19.7234003 C14.4220352,19.7496142 14.2221198,19.7739832 14.0186577,19.7964996 L14.0186577,19.7964996 L13.3977552,19.8584829 C13.0821076,19.8866876 12.7587582,19.910706 12.428124,19.9305115 L12.428124,19.9305115 L11.7572663,19.9644973 C11.4171046,19.9786737 11.0699362,19.9886194 10.7161783,19.9943077 L10.7161783,19.9943077 L10,20 L9.28382174,19.9943077 C8.93006383,19.9886194 8.58289545,19.9786737 8.2427337,19.9644973 L8.2427337,19.9644973 L7.571876,19.9305115 C7.24124183,19.910706 6.91789239,19.8866876 6.60224478,19.8584829 L6.60224478,19.8584829 L5.98134229,19.7964996 C5.77788023,19.7739832 5.57796479,19.7496142 5.38171958,19.7234003 L5.38171958,19.7234003 L4.80411821,19.6392323 C1.21727587,19.0712173 -1,17.8400866 -1,16 C-1,15.2050716 -0.692229474,14.552011 -0.10639964,13.8323989 C-0.0758249191,13.7948421 -0.0448938239,13.7575085 -0.0128515129,13.7194853 L-0.0128515129,13.7194853 L0.198775677,13.4757657 L0.618445007,13.0110469 L0.91946309,12.6669881 C1.67813778,11.7643706 2,11.0439003 2,10 L2,10 L2,7 C2,2.58172525 5.58172525,-1 10,-1 Z M10,1 C6.68629475,1 4,3.68629475 4,7 L4,7 L4,10 C4,11.6898687 3.42260969,12.8574802 2.24983786,14.1866216 L2.24983786,14.1866216 L1.4892624,15.0417013 L1.34441877,15.2222364 C1.0964442,15.54873 1,15.7780382 1,16 C1,16.3056227 1.43853666,16.6406043 2.23673585,16.947546 L2.23673585,16.947546 L2.55276568,17.0612227 L2.90158957,17.171598 C2.96240837,17.1896814 3.02455508,17.2075992 3.08801044,17.2253375 L3.08801044,17.2253375 L3.48429234,17.3294995 C3.55290527,17.3464633 3.62278834,17.3632194 3.69392229,17.3797539 L3.69392229,17.3797539 L4.13558251,17.4761893 C4.21164296,17.4917812 4.28891577,17.5071234 4.3673817,17.522202 L4.3673817,17.522202 L4.85234055,17.6093972 C5.01866325,17.6373328 5.18960434,17.6641016 5.36500978,17.6895914 L5.36500978,17.6895914 L5.90446508,17.7621122 C5.99655512,17.7735221 6.08972273,17.7845843 6.18394865,17.7952847 L6.18394865,17.7952847 L6.76184998,17.855034 L7.3642266,17.905428 C7.46661096,17.9130101 7.56997662,17.9201743 7.67430431,17.9269067 L7.67430431,17.9269067 L8.31166081,17.9620068 L8.97118185,17.9860702 L9.65194312,17.9984242 L10,18 L10,18 L10.3480569,17.9984242 L11.0288181,17.9860702 L11.6883392,17.9620068 C11.796438,17.9570578 11.9036133,17.951649 12.0098458,17.9457943 L12.0098458,17.9457943 L12.6357734,17.905428 L13.23815,17.855034 C13.3365322,17.8458367 13.4338946,17.8362496 13.5302179,17.8262867 L13.5302179,17.8262867 L14.0955349,17.7621122 L14.6349902,17.6895914 C14.8103957,17.6641016 14.9813367,17.6373328 15.1476594,17.6093972 L15.1476594,17.6093972 L15.6326183,17.522202 C15.7110842,17.5071234 15.788357,17.4917812 15.8644175,17.4761893 L15.8644175,17.4761893 L16.3060777,17.3797539 C16.3772117,17.3632194 16.4470947,17.3464633 16.5157077,17.3294995 L16.5157077,17.3294995 L16.9119896,17.2253375 C16.9754449,17.2075992 17.0375916,17.1896814 17.0984104,17.171598 L17.0984104,17.171598 L17.4472343,17.0612227 L17.7632641,16.947546 C18.5614633,16.6406043 19,16.3056227 19,16 C19,15.7502929 18.8779378,15.4912882 18.5553802,15.0950702 L18.5553802,15.0950702 L18.3174653,14.8199854 L17.7501621,14.1866216 C16.5773903,12.8574802 16,11.6898687 16,10 L16,10 L16,7 C16,3.68629108 13.3137116,1 10,1 Z" transform="translate(1 1)"/>
</svg>
