<svg xmlns="http://www.w3.org/2000/svg" width="22" height="22" viewBox="0 0 22 22"><path fill="#1b1d21" d="M11.062.25c4.465.033 8.447 2.814 10.008 6.992a10.74 10.74 0 0 1-2.975 11.829 10.78 10.78 0 0 1-12.128 1.441h0l-.05-.017-.01-.013-.734-.415a.73.73 0 0 0-.416-.045 19.02 19.02 0 0 1-2.334.674h0l-.145.017c-.87.02-1.3-.546-1.3-1.37h0l.02-.176c.198-.818.446-1.624.728-2.37a.56.56 0 0 0-.046-.436h0l-.198-.385C-.274 12.637-.142 8.628 1.82 5.4A10.77 10.77 0 0 1 11.062.25zm-.01 1.5l-.302.004a9.27 9.27 0 0 0-7.649 4.437 9.24 9.24 0 0 0-.296 9.096h0l.194.38c.26.484.313 1.05.136 1.618a19.05 19.05 0 0 0-.688 2.236l.1-.395.425-.11.438-.127.443-.14.45-.155c.475-.13.98-.1 1.48.105l.083.04.198.106.57.326.02.005-.013-.002.31.155a9.28 9.28 0 0 0 9.918-1.183h0l.237-.2a9.24 9.24 0 0 0 2.56-10.177c-1.343-3.595-4.77-5.988-8.613-6.017h0zM6.287 9.774c.677 0 1.227.55 1.227 1.226s-.55 1.226-1.227 1.226S5.06 11.678 5.06 11s.55-1.226 1.227-1.226zm4.77 0c.677 0 1.227.55 1.227 1.226s-.55 1.226-1.227 1.226S9.83 11.678 9.83 11s.55-1.226 1.227-1.226zm4.77 0c.677 0 1.227.55 1.227 1.226s-.55 1.226-1.227 1.226S14.6 11.678 14.6 11s.55-1.226 1.227-1.226zm-9.54.952c-.15 0-.273.122-.273.274s.123.274.273.274.273-.122.273-.274-.123-.274-.273-.274zm4.77 0c-.15 0-.273.122-.273.274s.123.274.273.274.273-.122.273-.274-.123-.274-.273-.274zm4.77 0c-.15 0-.273.122-.273.274s.123.274.273.274.273-.122.273-.274-.123-.274-.273-.274z"/></svg>