<svg xmlns="http://www.w3.org/2000/svg" width="19" height="18" viewBox="0 0 19 18">
  <path fill="#11142D" d="M7.1434,0.146484 C7.97802731,0.146484 8.76394774,0.539444966 9.26418917,1.2064298 L9.26418917,1.2064298 L10.0244937,2.21763747 C10.2430362,2.50782308 10.5849213,2.67876895 10.9467,2.67949 L10.9467,2.67949 L13.3048,2.67949 C16.6390949,2.67949 18.1470886,4.44586638 18.1470886,7.99760234 L18.1470886,7.99760234 L18.1243,12.1315 C18.1243,15.5275136 16.0314136,17.6204 12.6354,17.6204 L12.6354,17.6204 L6.14693,17.6204 C2.74452675,17.6204 0.65039,15.5287329 0.65039,12.1315 L0.65039,12.1315 L0.65039,5.63542 C0.65039,2.08139153 2.19106687,0.146484 5.47755,0.146484 L5.47755,0.146484 Z M7.1434,1.646484 L5.47755,1.646484 C3.1041988,1.646484 2.15039,2.8443548 2.15039,5.63542 L2.15039,5.63542 L2.15039,12.1315 C2.15039,14.6999093 3.5725579,16.1204 6.14693,16.1204 L6.14693,16.1204 L12.6354,16.1204 C15.2029864,16.1204 16.6243,14.6990864 16.6243114,12.1273677 L16.6243114,12.1273677 L16.6471,7.99347 C16.6471,5.22630696 15.753403,4.17949 13.3048,4.17949 L13.3048,4.17949 L10.9452083,4.17948852 C10.1118979,4.17783109 9.32759543,3.78567231 8.82593083,3.1195502 L8.82593083,3.1195502 L8.0647315,2.107152 C7.84723171,1.8171543 7.50589177,1.646484 7.1434,1.646484 L7.1434,1.646484 Z M13.3808,10.3242 C13.7950136,10.3242 14.1308,10.6599864 14.1308,11.0742 C14.1308,11.4538958 13.8486461,11.767691 13.4825706,11.8173534 L13.3808,11.8242 L5.38623,11.8242 C4.97201644,11.8242 4.63623,11.4884136 4.63623,11.0742 C4.63623,10.6945042 4.91838388,10.380709 5.28445944,10.3310466 L5.38623,10.3242 L13.3808,10.3242 Z"/>
</svg>
