<?xml version="1.0" encoding="UTF-8"?>
<svg width="104px" height="19px" viewBox="0 0 104 19" version="1.1" xmlns="http://www.w3.org/2000/svg" xmlns:xlink="http://www.w3.org/1999/xlink">
    <title>logo</title>
    <g id="logo" stroke="none" stroke-width="1" fill="none" fill-rule="evenodd">
        <path d="M6.70454545,18.5 C8.47727273,18.5 10.0014205,18.1505682 11.2769886,17.4517045 C12.5525568,16.7528409 13.5326705,15.75 14.2173295,14.4431818 C14.9019886,13.1363636 15.2443182,11.5738636 15.2443182,9.75568182 C15.2443182,7.94318182 14.9019886,6.38636364 14.2173295,5.08522727 C13.5326705,3.78409091 12.5568182,2.78551136 11.2897727,2.08948864 C10.0227273,1.39346591 8.51136364,1.04545455 6.75568182,1.04545455 L6.75568182,1.04545455 L0.517045455,1.04545455 L0.517045455,18.5 L6.70454545,18.5 Z M6.55113636,15.3380682 L4.20738636,15.3380682 L4.20738636,4.20738636 L6.55965909,4.20738636 C7.65056818,4.20738636 8.56818182,4.40056818 9.3125,4.78693182 C10.0568182,5.17329545 10.6178977,5.77556818 10.9957386,6.59375 C11.3735795,7.41193182 11.5625,8.46590909 11.5625,9.75568182 C11.5625,11.0568182 11.3735795,12.1178977 10.9957386,12.9389205 C10.6178977,13.7599432 10.0553977,14.3650568 9.30823864,14.7542614 C8.56107955,15.1434659 7.64204545,15.3380682 6.55113636,15.3380682 L6.55113636,15.3380682 Z M21.6619235,18.5 L21.6619235,1.04545455 L17.9715826,1.04545455 L17.9715826,18.5 L21.6619235,18.5 Z M31.1698622,18.7471591 C32.5903168,18.7471591 33.8048054,18.5326705 34.8133281,18.1036932 C35.8218509,17.6747159 36.5945781,17.0696023 37.13151,16.2883523 C37.6684418,15.5071023 37.9397486,14.5823864 37.9454304,13.5142045 C37.9397486,12.7869318 37.8076463,12.1420455 37.5491236,11.5795455 C37.2906009,11.0170455 36.928385,10.5284091 36.4624759,10.1136364 C35.9965668,9.69886364 35.4454304,9.34943182 34.8090668,9.06534091 C34.1727031,8.78125 33.4738395,8.55397727 32.7124759,8.38352273 L32.7124759,8.38352273 L31.144294,8.00852273 C30.7636122,7.92329545 30.4056577,7.81960227 30.0704304,7.69744318 C29.7352031,7.57528409 29.4397486,7.43039773 29.1840668,7.26278409 C28.928385,7.09517045 28.7281009,6.89488636 28.5832145,6.66193182 C28.4383281,6.42897727 28.3715668,6.15625 28.3829304,5.84375 C28.3829304,5.46875 28.4923054,5.13352273 28.7110554,4.83806818 C28.9298054,4.54261364 29.2465668,4.31107955 29.6613395,4.14346591 C30.0761122,3.97585227 30.584635,3.89204545 31.1869077,3.89204545 C32.0732713,3.89204545 32.7749759,4.08238636 33.2920213,4.46306818 C33.8090668,4.84375 34.1016804,5.37784091 34.1698622,6.06534091 L34.1698622,6.06534091 L37.706794,6.06534091 C37.6897486,5.02556818 37.4113395,4.11079545 36.8715668,3.32102273 C36.331794,2.53125 35.5775327,1.91477273 34.6087827,1.47159091 C33.6400327,1.02840909 32.5079304,0.806818182 31.2124759,0.806818182 C29.9397486,0.806818182 28.803385,1.02840909 27.803385,1.47159091 C26.803385,1.91477273 26.0178736,2.53125 25.4468509,3.32102273 C24.8758281,4.11079545 24.5931577,5.03409091 24.5988395,6.09090909 C24.5931577,7.38068182 25.0164531,8.40625 25.8687259,9.16761364 C26.7209986,9.92897727 27.8829304,10.4886364 29.3545213,10.8465909 L29.3545213,10.8465909 L31.2550895,11.3238636 C31.8914531,11.4772727 32.4298054,11.6477273 32.8701463,11.8352273 C33.3104872,12.0227273 33.6457145,12.25 33.8758281,12.5170455 C34.1059418,12.7840909 34.2209986,13.1136364 34.2209986,13.5056818 C34.2209986,13.9261364 34.0931577,14.2982955 33.8374759,14.6221591 C33.581794,14.9460227 33.222419,15.1988636 32.7593509,15.3806818 C32.2962827,15.5625 31.7522486,15.6534091 31.1272486,15.6534091 C30.490885,15.6534091 29.9212827,15.5553977 29.4184418,15.359375 C28.9156009,15.1633523 28.5150327,14.8707386 28.2167372,14.4815341 C27.9184418,14.0923295 27.7494077,13.6051136 27.709635,13.0198864 L27.709635,13.0198864 L24.1386122,13.0198864 C24.1670213,14.2755682 24.472419,15.328125 25.0548054,16.1775568 C25.6371918,17.0269886 26.4496918,17.6676136 27.4923054,18.0994318 C28.534919,18.53125 29.7607713,18.7471591 31.1698622,18.7471591 Z M48.2408683,18.7386364 C49.3601865,18.7386364 50.3644479,18.5696023 51.2536524,18.2315341 C52.1428569,17.8934659 52.9099024,17.4332386 53.5547888,16.8508523 C54.1996751,16.2684659 54.7138797,15.6065341 55.0974024,14.8650568 C55.4809251,14.1235795 55.7209819,13.3522727 55.8175729,12.5511364 L55.8175729,12.5511364 L52.0846183,12.5340909 C51.999391,13 51.8474024,13.4147727 51.6286524,13.7784091 C51.4099024,14.1420455 51.1357547,14.4502841 50.8062092,14.703125 C50.4766638,14.9559659 50.1002433,15.1477273 49.6769479,15.2784091 C49.2536524,15.4090909 48.7948456,15.4744318 48.3005274,15.4744318 C47.4198456,15.4744318 46.6442774,15.2585227 45.9738229,14.8267045 C45.3033683,14.3948864 44.7820615,13.7556818 44.4099024,12.9090909 C44.0377433,12.0625 43.8516638,11.0170455 43.8516638,9.77272727 C43.8516638,8.5625 44.0363229,7.53267045 44.405641,6.68323864 C44.7749592,5.83380682 45.2948456,5.18607955 45.9653001,4.74005682 C46.6357547,4.29403409 47.4226865,4.07102273 48.3260956,4.07102273 C48.8260956,4.07102273 49.2905842,4.14204545 49.7195615,4.28409091 C50.1485388,4.42613636 50.5278001,4.63068182 50.8573456,4.89772727 C51.186891,5.16477273 51.4567774,5.48721591 51.6670047,5.86505682 C51.8772319,6.24289773 52.0164365,6.67329545 52.0846183,7.15625 L52.0846183,7.15625 L55.8175729,7.15625 C55.6982547,6.14488636 55.4269479,5.24715909 55.0036524,4.46306818 C54.5803569,3.67897727 54.0334819,3.015625 53.3630274,2.47301136 C52.6925729,1.93039773 51.9241069,1.51704545 51.0576297,1.23295455 C50.1911524,0.948863636 49.2522319,0.806818182 48.2408683,0.806818182 C46.7067774,0.806818182 45.3260956,1.15767045 44.0988229,1.859375 C42.8715501,2.56107955 41.8999592,3.57954545 41.1840501,4.91477273 C40.468141,6.25 40.1101865,7.86931818 40.1101865,9.77272727 C40.1101865,11.6704545 40.4638797,13.2869318 41.171266,14.6221591 C41.8786524,15.9573864 42.8445615,16.9772727 44.0689933,17.6818182 C45.2934251,18.3863636 46.6840501,18.7386364 48.2408683,18.7386364 Z M70.2601624,18.5 L70.2601624,15.4573864 L62.1550487,15.4573864 L62.1550487,11.2897727 L69.6209578,11.2897727 L69.6209578,8.24715909 L62.1550487,8.24715909 L62.1550487,4.08806818 L70.2260714,4.08806818 L70.2260714,1.04545455 L58.4647078,1.04545455 L58.4647078,18.5 L70.2601624,18.5 Z M76.8550346,18.5 L76.855,12.313 L79.548,12.313 L82.8550346,18.5 L86.9288982,18.5 L83.225,11.72 L83.387705,11.6477273 C84.2477257,11.2448347 84.9234394,10.6811138 85.4148463,9.95656461 L85.5567391,9.734375 C86.0567391,8.90198864 86.3067391,7.90625 86.3067391,6.74715909 C86.3067391,5.59375 86.0610005,4.58948864 85.5695232,3.734375 C85.0780459,2.87926136 84.3649777,2.21732955 83.4303187,1.74857955 C82.4956596,1.27982955 81.3692391,1.04545455 80.0510573,1.04545455 L80.0510573,1.04545455 L73.1646937,1.04545455 L73.1646937,18.5 L76.8550346,18.5 Z M76.855,4.0625 L79.3436709,4.0625 C80.0538982,4.0625 80.6433868,4.16619318 81.1121368,4.37357955 C81.5808868,4.58096591 81.9303187,4.88352273 82.1604323,5.28125 C82.3905459,5.67897727 82.5056027,6.16761364 82.5056027,6.74715909 C82.5056027,7.32102273 82.3905459,7.80113636 82.1604323,8.1875 C81.9303187,8.57386364 81.5823073,8.86363636 81.1163982,9.05681818 C80.6504891,9.25 80.0652618,9.34659091 79.3607164,9.34659091 L79.3607164,9.34659091 L76.855,9.347 L76.855,4.0625 Z M92.6050179,18.5 L92.6050179,7.51420455 L92.7328588,7.51420455 L100.326609,18.5 L103.514109,18.5 L103.514109,1.04545455 L99.8408134,1.04545455 L99.8408134,12.0227273 L99.6874043,12.0227273 L92.1533134,1.04545455 L88.914677,1.04545455 L88.914677,18.5 L92.6050179,18.5 Z" id="DISCERN" fill="#11142D" fill-rule="nonzero"></path>
    </g>
</svg>