<svg xmlns="http://www.w3.org/2000/svg" width="20" height="22" viewBox="0 0 20 22"><path fill="#1b1d21" d="M10.797.528c.72 0 1.41.29 1.91.807s.773 1.213.75 1.864h0l.01.153c.018.15.067.296.146.43.155.264.41.456.705.533s.612.033.9-.142h0l.166-.086c1.25-.587 2.746-.12 3.44 1.08h0l.622 1.08a.75.75 0 0 1 .043.088h0l.058.116a2.66 2.66 0 0 1-.897 3.32h0l-.26.164c-.137.095-.25.22-.336.37-.155.265-.197.58-.118.878s.273.55.568.72h0l.17.11c.512.358.882.886 1.043 1.49a2.66 2.66 0 0 1-.276 2.028h0l-.67 1.115-.1.157c-.787 1.13-2.314 1.477-3.48.804h0l-.138-.07c-.144-.064-.3-.1-.44-.104-.308-.002-.604.12-.82.338a1.18 1.18 0 0 0-.339.857h0l-.008.178c-.113 1.377-1.265 2.444-2.654 2.444h0-1.254c-1.47 0-2.663-1.192-2.662-2.616h0l-.01-.153c-.018-.15-.067-.296-.15-.437-.152-.265-.403-.458-.698-.537s-.61-.037-.913.14h0l-.18.1c-.57.257-1.216.304-1.82.133-.682-.194-1.258-.65-1.594-1.258h0L.87 15.494l-.086-.166c-.59-1.244-.127-2.74 1.045-3.416h0l.107-.067c.313-.217.5-.574.5-.956 0-.416-.222-.8-.61-1.024h0l-.157-.1C.538 8.977.193 7.45.894 6.234h0l.66-1.083C2.286 3.88 3.9 3.44 5.16 4.156h0l.135.072c.138.063.288.097.432.098.636 0 1.154-.51 1.164-1.165h0v-.2c.052-.622.322-1.207.764-1.65.498-.5 1.175-.782 1.88-.782h0zm0 1.5H9.543c-.307 0-.6.122-.818.34a1.14 1.14 0 0 0-.33.685h0l-.014.316C8.277 4.746 7.126 5.827 5.72 5.827c-.363-.004-.72-.084-1.085-.253h0l-.195-.103c-.556-.32-1.266-.127-1.595.444h0l-.66 1.083c-.302.524-.15 1.192.317 1.518h0l.265.168c.73.493 1.17 1.318 1.17 2.206 0 .875-.43 1.693-1.173 2.206h0l-.158.1c-.52.3-.722.952-.48 1.464h0l.057.1.64 1.102c.15.27.402.47.7.555a1.15 1.15 0 0 0 .765-.044h0l.1-.054c.61-.356 1.335-.453 2.017-.27s1.262.63 1.606 1.23c.185.312.302.66.348 1.06h0l.02.366c.063.583.557 1.036 1.156 1.036h1.254c.606 0 1.1-.466 1.157-1.037h0l.006-.113c-.003-.708.276-1.388.777-1.89s1.18-.78 1.906-.777c.356.01.705.09 1.063.25h0l.32.164c.503.22 1.1.06 1.403-.374h0l.074-.115.654-1.1c.155-.265.197-.582.118-.878a1.14 1.14 0 0 0-.426-.63h0l-.114-.073c-.612-.352-1.06-.934-1.24-1.617a2.65 2.65 0 0 1 .268-2.015c.193-.337.46-.627.805-.867h0l.163-.103c.52-.304.72-.954.48-1.468h0l-.072-.138-.013-.03-.594-1.03c-.28-.487-.865-.698-1.36-.532h0l-.113.045-.105.053c-.607.358-1.332.46-2.014.282a2.65 2.65 0 0 1-1.62-1.223c-.185-.312-.302-.66-.348-1.058h0l-.013-.26c.01-.314-.11-.62-.33-.844s-.52-.352-.835-.352h0zm-.622 5.475c1.87 0 3.386 1.516 3.386 3.386s-1.516 3.386-3.386 3.386S6.79 12.76 6.79 10.89s1.516-3.386 3.386-3.386zm0 1.5c-1.042 0-1.886.844-1.886 1.886s.844 1.886 1.886 1.886 1.886-.844 1.886-1.886-.844-1.886-1.886-1.886z"/></svg>