<svg xmlns="http://www.w3.org/2000/svg" width="17" height="18" viewBox="0 0 17 18"><path fill="#11142d" d="M15.5 15.5a1 1 0 0 1 .117 1.993l-.117.007h-14a1 1 0 0 1-.117-1.993L1.5 15.5h14zm-7-15a1 1 0 0 1 .993.883L9.5 1.5v8.585l3.293-3.292a1 1 0 0 1 1.32-.083l.094.083a1 1 0 0 1 .083 1.32l-.083.094-5 5c-.028.028-.06.055-.1.08l.1-.08a1.01 1.01 0 0 1-.112.097l-.075.05-.037.02-.06.03-.052.022-.06.022-.046.014-.065.016-.052.01-.063.007-.053.003H8.5h-.032l-.054-.003.086.004a1.01 1.01 0 0 1-.149-.011l-.052-.01-.065-.015-.046-.014-.06-.02-.052-.023-.06-.03-.036-.02-.074-.05-.018-.013c-.036-.028-.066-.055-.094-.083l-5-5a1 1 0 0 1 1.32-1.497l.094.083L7.5 10.085V1.5a1 1 0 0 1 1-1z"/></svg>