<?xml version="1.0" encoding="UTF-8"?>
<svg width="24px" height="24px" viewBox="0 0 24 24" version="1.1" xmlns="http://www.w3.org/2000/svg" xmlns:xlink="http://www.w3.org/1999/xlink">
    <title>more</title>
    <g id="Icons" stroke="none" stroke-width="1" fill="none" fill-rule="evenodd">
        <g id="more">
            <path d="M24,0 L24,24 L0,24 L0,0 L24,0 Z" id="Vector"></path>
            <path d="M12,17.1300049 C13.1377066,17.1300049 14.0599976,18.0522958 14.0599976,19.1900024 C14.0599976,20.3277091 13.1377066,21.25 12,21.25 C10.8622934,21.25 9.94000244,20.3277091 9.94000244,19.1900024 C9.94000244,18.0522958 10.8622934,17.1300049 12,17.1300049 Z M12,9.94000244 C13.1377066,9.94000244 14.0599976,10.8622934 14.0599976,12 C14.0599976,13.1377066 13.1377066,14.0599976 12,14.0599976 C10.8622934,14.0599976 9.94000244,13.1377066 9.94000244,12 C9.94000244,10.8622934 10.8622934,9.94000244 12,9.94000244 Z M12,2.75 C13.1377066,2.75 14.0599976,3.67229092 14.0599976,4.80999756 C14.0599976,5.9477042 13.1377066,6.86999512 12,6.86999512 C10.8622934,6.86999512 9.94000244,5.9477042 9.94000244,4.80999756 C9.94000244,3.67229092 10.8622934,2.75 12,2.75 Z" id="Combined-Shape" fill="#000000"></path>
        </g>
    </g>
</svg>