<?xml version="1.0" encoding="UTF-8"?>
<svg width="24px" height="24px" viewBox="0 0 24 24" version="1.1" xmlns="http://www.w3.org/2000/svg" xmlns:xlink="http://www.w3.org/1999/xlink">
    <title>bell</title>
    <g id="Icons" stroke="none" stroke-width="1" fill="none" fill-rule="evenodd">
        <g id="bell">
            <path d="M24,0 L24,24 L0,24 L0,0 L24,0 Z" id="Vector"></path>
            <g id="Group" transform="translate(3.779999, 2.750000)" stroke="#000000" stroke-dasharray="0,0" stroke-linecap="round" stroke-linejoin="round" stroke-width="1.5">
                <path d="M14.8999939,15.4100037 L1.54000854,15.4100037 C0.690008521,15.4100037 0,14.7199951 0,13.8699951 C0,13.0200043 0.690008521,12.3300018 1.54000854,12.3300018 L2.04998779,12.3300018 L2.04998779,7.19000244 C2.04998779,3.79000235 4.81000113,1.02000427 8.22000122,1.02000427 C9.92000127,1.02000427 11.4599866,1.71000183 12.5799866,2.83000183 C13.6999866,3.94000185 14.3900146,5.4800024 14.3900146,7.19000244 L14.3900146,12.3300018 L14.8999939,12.3300018 C15.7499939,12.3300018 16.4400024,13.0200043 16.4400024,13.8699951 C16.4400024,14.7199951 15.7499939,15.4100037 14.8999939,15.4100037 Z" id="Vector" fill-rule="nonzero"></path>
                <line x1="8.22000122" y1="1.02999878" x2="8.22000122" y2="0" id="Vector"></line>
                <path d="M8.22000122,18.5 C6.52000117,18.5 5.14001465,17.1199982 5.14001465,15.4199982 L11.2999878,15.4199982 C11.2999878,17.1299982 9.92000127,18.5 8.22000122,18.5 Z" id="Vector" fill-rule="nonzero"></path>
            </g>
        </g>
    </g>
</svg>