<?xml version="1.0" encoding="UTF-8"?>
<svg width="24px" height="24px" viewBox="0 0 24 24" version="1.1" xmlns="http://www.w3.org/2000/svg" xmlns:xlink="http://www.w3.org/1999/xlink">
    <title>settings</title>
    <g id="Icons" stroke="none" stroke-width="1" fill="none" fill-rule="evenodd">
        <g id="settings">
            <path d="M24,0 L24,24 L0,24 L0,0 L24,0 Z" id="Vector"></path>
            <g id="Group" transform="translate(3.249603, 2.750000)" stroke="#000000" stroke-dasharray="0,0" stroke-linecap="round" stroke-linejoin="round" stroke-width="1.5">
                <path d="M8.75039673,11.8199997 C7.33102489,11.8199997 6.1803894,10.6693718 6.1803894,9.25 C6.1803894,7.83062816 7.33102489,6.68000031 8.75039673,6.68000031 C10.1697686,6.68000031 11.3204041,7.83062816 11.3204041,9.25 C11.3204041,10.6693718 10.1697686,11.8199997 8.75039673,11.8199997 Z" id="Vector"></path>
                <path d="M16.2403755,3.73999786 C15.8103755,3 14.8703902,2.7500003 14.1303902,3.18000031 L13.6203804,3.47000122 C12.5903804,4.06000119 11.3103828,3.31999731 11.3103828,2.12999725 L11.3103828,1.54000092 C11.3103828,0.690000892 10.6203743,0 9.7703743,0 L7.71037722,0 C6.86037719,0 6.17039919,0.690000892 6.17039919,1.54000092 L6.17039919,2.12999725 C6.17039919,3.31999731 4.89037085,4.06000119 3.86037087,3.47000122 L3.35039163,3.18000031 C2.61039162,2.7500003 1.67037576,3.00999784 1.24037576,3.73999786 L0.210377008,5.51999664 C-0.219622999,6.25999665 0.0403745174,7.19999725 0.770374537,7.62999725 L1.2803843,7.91999817 C2.31038427,8.50999814 2.31038427,10 1.2803843,10.5899963 L0.770374537,10.8799973 C0.030374527,11.3099973 -0.219622999,12.2499979 0.210377008,12.9899979 L1.24037576,14.7699966 C1.67037576,15.5099967 2.61039162,15.7600018 3.35039163,15.3300018 L3.86037087,15.0400009 C4.89037085,14.4500009 6.17039919,15.1899972 6.17039919,16.3799973 L6.17039919,16.9700012 C6.17039919,17.8200012 6.86037719,18.5100021 7.71037722,18.5100021 L9.7703743,18.5100021 C10.6203743,18.5100021 11.3103828,17.8200012 11.3103828,16.9700012 L11.3103828,16.3799973 C11.3103828,15.1899972 12.5903804,14.4500009 13.6203804,15.0400009 L14.1303902,15.3300018 C14.8703902,15.7600018 15.8103755,15.5 16.2403755,14.7699966 L17.2703743,12.9899979 C17.7003743,12.2499979 17.4403768,11.3099973 16.7103767,10.8799973 L16.2003975,10.5899963 C15.1703975,10 15.1703975,8.50999814 16.2003975,7.91999817 L16.7103767,7.62999725 C17.4503767,7.19999725 17.7003743,6.24999666 17.2703743,5.51999664 L16.2403755,3.73999786 Z" id="Vector"></path>
            </g>
        </g>
    </g>
</svg>