<svg xmlns="http://www.w3.org/2000/svg" width="24" height="6" viewBox="0 0 24 6">
  <path fill="#11142D" d="M11,-1 C12.6568542,-1 14,0.343145751 14,2 C14,3.65685425 12.6568542,5 11,5 C9.34314575,5 8,3.65685425 8,2 C8,0.343145751 9.34314575,-1 11,-1 Z M2,-1 C3.65685425,-1 5,0.343145751 5,2 C5,3.65685425 3.65685425,5 2,5 C0.343145751,5 -1,3.65685425 -1,2 C-1,0.343145751 0.343145751,-1 2,-1 Z M20,-1 C21.6568542,-1 23,0.343145751 23,2 C23,3.65685425 21.6568542,5 20,5 C18.3431458,5 17,3.65685425 17,2 C17,0.343145751 18.3431458,-1 20,-1 Z M11,1 C10.4477153,1 10,1.44771525 10,2 C10,2.55228475 10.4477153,3 11,3 C11.5522847,3 12,2.55228475 12,2 C12,1.44771525 11.5522847,1 11,1 Z M2,1 C1.44771525,1 1,1.44771525 1,2 C1,2.55228475 1.44771525,3 2,3 C2.55228475,3 3,2.55228475 3,2 C3,1.44771525 2.55228475,1 2,1 Z M20,1 C19.4477153,1 19,1.44771525 19,2 C19,2.55228475 19.4477153,3 20,3 C20.5522847,3 21,2.55228475 21,2 C21,1.44771525 20.5522847,1 20,1 Z" transform="translate(1 1)"/>
</svg>
