<?xml version="1.0" encoding="UTF-8"?>
<svg width="92px" height="34px" viewBox="0 0 92 34" version="1.1" xmlns="http://www.w3.org/2000/svg" xmlns:xlink="http://www.w3.org/1999/xlink">
    <title>logo</title>
    <g id="logo" stroke="none" stroke-width="1" fill="none" fill-rule="evenodd">
        <g id="Bubbles" transform="translate(1.967808, 0.121470)" fill="#8E4DF4" fill-rule="nonzero">
            <path d="M11.4157919,14.2839701 C12.0011517,14.0755304 12.5775115,13.8440507 13.1416314,13.5848508 C14.8113116,12.8173305 16.4511117,11.9961706 17.9083916,10.8571306 C18.7281117,10.2159707 19.4837519,9.51289074 20.0341917,8.61793072 C20.7228718,7.49761089 20.7937919,6.33769085 20.2307519,5.14537102 C19.9510318,4.55317113 19.5679918,4.02829107 19.1050318,3.57001122 C17.7892316,2.26681133 16.1850717,1.4593316 14.4379918,0.914291617 C12.721512,0.378251639 10.966512,0.186011771 9.16831215,0.308411551 C8.07571193,0.382931815 7.00075191,0.531971793 5.94955202,0.834371573 C4.84039211,1.1533316 3.78379189,1.59757146 2.88991183,2.34529162 C2.20231161,2.92129162 1.57771139,3.56749151 0.992351583,4.24861144 C0.65863143,4.63741155 0.362711386,5.05285131 0.148511495,5.52121111 C-0.182688395,6.24625109 0.0487913416,6.94321111 0.75583132,7.30645098 C0.987671408,7.42525109 1.23967141,7.50733105 1.48771139,7.59013116 C1.62559145,7.63621111 1.76743154,7.59877135 1.87219167,7.49545153 C1.9859518,7.38277135 1.91143154,7.25785131 1.85239156,7.15345153 C1.70155147,6.8866914 1.76563143,6.64981133 1.92691128,6.4190512 C1.99819112,6.31753094 2.06551095,6.212411 2.14363088,6.11629107 C2.95255092,5.123411 3.90655092,4.29757091 4.9912311,3.61717113 C6.61195125,2.60089129 8.4108713,2.16025109 10.2864715,2.01301122 C11.1641517,1.94389129 12.0515515,1.96621111 12.9303116,2.08501122 C14.1971517,2.25565142 15.4265515,2.55409118 16.5522716,3.18445098 C17.1570717,3.52321111 17.7381117,3.90193127 18.0909118,4.5290512 C18.6571917,5.53525109 18.5891517,6.54037102 18.0441117,7.52785076 C17.3817119,8.72737102 16.3978319,9.62773083 15.2951517,10.406411 C13.4652716,11.6988108 11.4370318,12.5966509 9.34255202,13.3566109 C8.91199178,13.5128508 8.88607174,13.4876509 8.88139156,13.011371 C8.87923165,12.7629712 8.88139156,12.5145715 8.88103176,12.2661717 C8.87923165,11.1069718 8.89255147,9.94741155 8.8698713,8.78893181 C8.85475136,8.01673192 8.76727163,7.24957201 8.58259145,6.49501177 C8.46847152,6.02737157 8.1945115,5.71525164 7.76719167,5.51941155 C7.38955147,5.34625164 7.16059145,5.43949151 7.06375136,5.85025164 C6.98167141,6.19837157 6.9345115,6.55549151 6.89023165,6.91117168 C6.65911172,8.77201177 6.40099178,10.629612 6.27571193,12.5023321 C6.1799518,13.9372922 6.14827163,15.3693721 6.39523165,16.7931722 C6.63535158,18.1748524 7.09723165,19.4445726 8.09191183,20.4954126 C9.20647207,21.6729729 10.5719518,22.2612128 12.1577519,22.367773 C13.6092722,22.4653332 14.9427119,22.0765331 16.1627519,21.2863332 C16.7599918,20.8993332 17.2974715,20.4536531 17.6621517,19.8294132 C17.979672,19.285813 18.010632,18.7378929 17.690592,18.1806131 C17.4259918,17.719813 17.0857919,17.3310129 16.6689118,16.9990928 C15.4603916,16.036813 14.0718713,15.4435331 12.6127913,14.9920934 C12.1001511,14.8333332 11.5821112,14.6940134 11.0291511,14.5352533 C11.150471,14.3635331 11.2897908,14.3286131 11.4157908,14.2839729 L11.4157919,14.2839701 Z M9.9239507,19.8898929 C9.52255092,19.1094132 9.28567086,18.2781733 9.1492311,17.4166936 C9.07831106,16.9681334 9.0322311,16.5156131 8.98363088,16.0641733 C8.96779079,15.9144132 8.97175081,15.7614132 8.98111062,15.6109335 C8.9879507,15.4989734 9.06571084,15.4410134 9.17731106,15.442427 C9.23203121,15.4431733 9.28675136,15.4550534 9.34039156,15.4662133 C10.7422316,15.7599734 12.1537919,16.0159335 13.4850717,16.5724937 C14.019672,16.7956936 14.5438319,17.0379734 15.003552,17.4001334 C15.6371522,17.8994532 15.732552,18.5085731 15.2789518,19.172773 C15.0409918,19.5212527 14.7209518,19.7793727 14.3670717,19.9993327 C13.5052316,20.5350129 12.5587919,20.7949329 11.5583521,20.8482128 C10.782552,20.9158929 10.2670318,20.5566131 9.9239518,19.8898929 L9.9239507,19.8898929 Z" id="B"></path>
            <path d="M28.1986305,19.310179 C28.2710925,19.7992953 28.3435539,20.2884116 28.4156704,20.7777003 C28.5285038,21.5430343 28.6754976,22.3014667 28.9035792,23.0416112 C29.0598894,23.5491883 29.2997028,24.0075951 29.679437,24.391642 C30.1680358,24.885762 30.7894813,24.9777192 31.431975,24.9750183 C31.7213043,24.9737509 31.9645691,24.8007053 32.0751591,24.5227627 C32.1821264,24.2539646 32.0194326,24.0477935 31.8451796,23.8602558 C31.8265468,23.8400701 31.8091214,23.817124 31.7868653,23.801769 C31.4076491,23.5395264 31.3184522,23.140642 31.2685918,22.7195014 C31.2230447,22.335972 31.1372981,21.9550304 31.1214256,21.570811 C31.0643186,20.193176 30.9028328,18.8215791 30.9243984,17.4385954 C30.9513127,15.7276363 30.9342323,14.0159872 30.9350947,12.3045107 C30.9352672,12.028466 30.9349222,11.7524219 30.9262957,11.4765497 C30.9105957,10.970353 30.6549093,10.5933791 30.276728,10.2805862 C30.0137955,10.0630284 29.6935836,9.97503942 29.3816532,9.86997002 C29.073346,9.76610802 28.8302543,9.8444356 28.6877462,10.1280713 C28.5780186,10.3464916 28.5115953,10.5906182 28.4527635,10.8299147 C28.2681586,11.5798931 28.1132288,12.3376356 27.9160297,13.0841637 C27.513522,14.607412 27.0263036,16.1011588 26.2975459,17.5067436 C26.0166705,18.0484811 25.6798961,18.5522624 25.307581,19.0325803 C24.9789157,19.4566537 24.5619159,19.7703095 24.049163,19.9392144 C23.6699469,20.0641246 23.4261652,19.9807938 23.1839359,19.6555787 C22.9513685,19.3434758 22.7862594,18.9939348 22.6490994,18.6311086 C22.3752976,17.907009 22.1501488,17.1691074 21.9991867,16.4086046 C21.6976076,14.8891515 21.5735604,13.3484777 21.493335,11.8067685 C21.4539984,11.0504065 21.1318892,10.5581844 20.4586854,10.2641968 C20.0623888,10.0911512 19.7533912,10.2105407 19.5917323,10.6102881 C19.5404915,10.7367512 19.5032259,10.8737386 19.4882158,11.0090001 C19.4150639,11.6666763 19.3124099,12.3203843 19.3084422,12.986342 C19.3039564,13.7615098 19.3705523,14.5287411 19.4594042,15.2970079 C19.6165768,16.6573906 19.9897544,17.948589 20.6845243,19.1331656 C21.134477,19.9002245 21.6700034,20.5968923 22.4424109,21.0806604 C23.1637501,21.5326835 23.9572058,21.7806059 24.7944838,21.7759477 C25.7345883,21.7707721 26.4655889,21.2573288 27.0721973,20.5799843 C27.436749,20.1729908 27.779044,19.7437418 28.0426664,19.2547975 C28.0947702,19.2732578 28.1468734,19.2917181 28.1986322,19.3101785 L28.1986305,19.310179 Z" id="u"></path>
            <path d="M35.2237701,1.03898699 C35.1953029,0.589379203 35.0034519,0.253467276 34.5716145,0.069897269 C34.2417412,-0.0703679287 34.0193532,-0.00584247707 33.9156637,0.320924979 C33.8330229,0.581614615 33.7690155,0.855416434 33.7484842,1.12732036 C33.6303026,2.69318358 32.5256065,18.5795503 33.0249021,19.7270333 C33.0730376,19.8379688 32.9524407,19.9411403 32.8351215,19.9361371 C32.644996,19.9280287 32.4536625,19.8961106 32.2676777,19.8529789 C32.0810024,19.8096746 31.9036435,19.7125412 31.7159328,19.6883872 C31.3487938,19.6411147 31.0894846,20.0132573 31.2473477,20.3436481 C31.3920987,20.646607 31.5613485,20.965266 31.8819054,21.0879333 C36.9166144,23.0142069 40.7122276,21.1164006 42.6826684,18.7722648 C43.6476168,17.4890023 44.0635817,16.0461519 44.0466738,14.4414701 C44.0340791,13.2496475 43.6610734,12.2163778 42.8950501,11.3330353 C41.8390069,10.1155057 40.2790098,9.42177123 38.4736776,10.5987563 C37.9162401,10.9622725 37.4053852,11.3753046 36.9333493,11.8437177 C36.4216314,12.3514673 35.9878961,12.9190842 35.5772799,13.5077493 C35.5496757,13.5472583 35.4863576,13.5822811 35.4389126,13.5833165 C35.3450575,13.5855594 35.2938167,13.5089572 35.2869157,13.4266614 C35.2403331,12.8762974 35.2898485,2.08364342 35.2237707,1.03898699 L35.2237701,1.03898699 Z M38.4415887,18.4586095 C37.6286372,18.9309908 36.7383931,19.2306715 35.8372802,19.4908437 C35.6311091,19.550366 35.5170683,19.4333923 35.5819387,19.2201477 C35.7180631,18.7724378 35.8543601,18.3238655 36.0191248,17.886335 C36.6229724,16.2818257 37.338273,14.738909 38.4843761,13.4311476 C38.851515,13.0122499 39.2748989,12.6659867 39.7291644,12.3561266 C40.0490313,12.1380513 40.4116851,11.9962338 40.7915912,11.9146279 C41.1545899,11.8364728 41.3931959,11.976048 41.4604817,12.3393917 C41.520349,12.6618465 41.5256971,12.9944801 41.5545093,13.3155544 C41.4069981,15.5808452 40.4066814,17.3164758 38.4415887,18.4586106 L38.4415887,18.4586095 Z" id="b"></path>
            <path d="M47.6197701,1.03898699 C47.5913029,0.589379203 47.3994519,0.253467276 46.9676145,0.069897269 C46.6377412,-0.0703679287 46.4153532,-0.00584247707 46.3116637,0.320924979 C46.2290229,0.581614615 46.1650155,0.855416434 46.1444842,1.12732036 C46.0263026,2.69318358 44.9216065,18.5795503 45.4209021,19.7270333 C45.4690376,19.8379688 45.3484407,19.9411403 45.2311215,19.9361371 C45.040996,19.9280287 44.8496625,19.8961106 44.6636777,19.8529789 C44.4770024,19.8096746 44.2996435,19.7125412 44.1119328,19.6883872 C43.7447938,19.6411147 43.4854846,20.0132573 43.6433477,20.3436481 C43.7880987,20.646607 43.9573485,20.965266 44.2779054,21.0879333 C49.3126144,23.0142069 53.1082276,21.1164006 55.0786684,18.7722648 C56.0436168,17.4890023 56.4595817,16.0461519 56.4426738,14.4414701 C56.4300791,13.2496475 56.0570734,12.2163778 55.2910501,11.3330353 C54.2350069,10.1155057 52.6750098,9.42177123 50.8696776,10.5987563 C50.3122401,10.9622725 49.8013852,11.3753046 49.3293493,11.8437177 C48.8176314,12.3514673 48.3838961,12.9190842 47.9732799,13.5077493 C47.9456757,13.5472583 47.8823576,13.5822811 47.8349126,13.5833165 C47.7410575,13.5855594 47.6898167,13.5089572 47.6829157,13.4266614 C47.6363331,12.8762974 47.6858485,2.08364342 47.6197707,1.03898699 L47.6197701,1.03898699 Z M50.8375887,18.4586095 C50.0246372,18.9309908 49.1343931,19.2306715 48.2332802,19.4908437 C48.0271091,19.550366 47.9130683,19.4333923 47.9779387,19.2201477 C48.1140631,18.7724378 48.2503601,18.3238655 48.4151248,17.886335 C49.0189724,16.2818257 49.734273,14.738909 50.8803761,13.4311476 C51.247515,13.0122499 51.6708989,12.6659867 52.1251644,12.3561266 C52.4450313,12.1380513 52.8076851,11.9962338 53.1875912,11.9146279 C53.5505899,11.8364728 53.7891959,11.976048 53.8564817,12.3393917 C53.916349,12.6618465 53.9216971,12.9944801 53.9505093,13.3155544 C53.8029981,15.5808452 52.8026814,17.3164758 50.8375887,18.4586106 L50.8375887,18.4586095 Z" id="b"></path>
            <path d="M62.4785253,21.0066213 C62.252859,20.789754 61.9773317,20.6386194 61.6716124,20.6234374 C61.2226952,20.6010088 60.9728748,20.3377314 60.7698096,19.992848 C60.4615025,19.4692259 60.1890805,18.9302493 60.0200031,18.3410662 C59.401491,16.1851581 59.1030177,13.9738684 58.8914985,11.7501565 C58.7715915,10.4893226 58.7056862,9.22279565 58.6352946,7.95782104 C58.5509284,6.44475152 58.4741532,4.9299566 58.6451284,3.41740453 C58.676011,3.14394768 58.5861242,2.93260094 58.397551,2.7500664 C58.1715391,2.53130114 57.8965299,2.41467248 57.5894307,2.36567455 C57.3107982,2.32116234 57.1053176,2.43088994 56.964535,2.66759807 C56.7918349,2.95813482 56.7307597,3.28145202 56.6840046,3.61167028 C56.4395324,5.33436114 56.3196254,7.06429803 56.3598244,8.52836962 C56.3615493,10.0448899 56.3879461,11.2815693 56.5035399,12.520492 C56.6651988,14.2540522 56.9276138,15.9653563 57.3439237,17.6549217 C57.6924298,19.0696504 58.4558653,20.2167884 59.5370974,21.178804 C60.2304869,21.7957638 61.0399876,21.9460359 61.9228132,21.8778871 C62.1201848,21.8627051 62.2963357,21.7900707 62.4493681,21.6615372 C62.6567466,21.4864212 62.6736546,21.194159 62.4785253,21.0066208 L62.4785253,21.0066213 Z" id="l"></path>
            <path d="M62.2516479,20.6846813 C64.1356527,22.0476512 65.8712827,22.2950567 67.8136018,21.1984695 C67.8857182,21.1577526 67.9578347,21.1170361 68.0282263,21.0735588 C68.68573,20.6682908 69.3573814,20.2835534 69.9971147,19.851716 C71.0281415,19.1559112 72.0034418,18.3872994 72.8341637,17.4523706 C73.0166982,17.24689 73.1828428,17.0257094 73.3450191,16.8034939 C73.5329018,16.5460826 73.4851113,16.2859104 73.3282837,16.0303964 C73.0634533,15.5987315 72.6131555,15.4453541 72.1780404,15.279555 C72.0931567,15.2471196 71.9547894,15.2919767 71.8668004,15.3444249 C71.7268802,15.4277557 71.595414,15.5352404 71.482926,15.6539394 C70.4066971,16.7902081 69.0972103,17.6109231 67.7620171,18.3917846 C67.0474065,18.8096468 66.3034661,19.1719556 65.501557,19.4057309 C64.9593021,19.563939 64.4113535,19.5730829 63.8613345,19.5095924 C63.4527887,19.4624924 63.2448927,19.1835149 63.2015885,18.6885319 C63.1724313,18.3569332 63.2511038,18.1573182 63.6734524,18.0275774 C64.5566229,17.7561909 65.3338606,17.2939889 66.0407072,16.7022186 C66.5500098,16.2760749 67.0301546,15.8190486 67.461474,15.3171651 C68.0780883,14.5996216 68.5653072,13.7984019 68.8375561,12.8846943 C69.2267792,11.5783133 68.8356582,10.355608 67.8079097,9.54800469 C67.0103133,8.92121105 66.1759687,8.78612151 65.271405,9.29576903 C65.1271715,9.37702941 64.9801778,9.45363158 64.840085,9.5414486 C63.9363837,10.107685 63.2164249,10.8583539 62.6291398,11.7435949 C61.9528302,12.7632349 61.4587102,13.8710364 61.0793216,15.0276633 C60.8389901,15.7607342 60.6290238,16.5082978 60.6495545,17.0139771 C60.6473117,18.6805965 61.1372909,19.8781123 62.2516485,20.6846802 L62.2516479,20.6846813 Z M66.6490384,13.1942093 C65.9660008,14.2995955 65.1635731,15.3025 64.0800981,16.0493731 C63.9676102,16.1268382 63.8490836,16.1968843 63.7277968,16.2596844 C63.5845982,16.3336987 63.4265626,16.2389812 63.4470933,16.0876742 C63.4800463,15.8435475 63.5007495,15.5920018 63.5775247,15.3604694 C63.9674377,14.1829668 64.464318,13.0537717 65.2075678,12.0512121 C65.602484,11.518446 66.0707246,11.0540012 66.6673262,10.7434512 C66.9625217,10.5897289 67.2130319,10.7434512 67.2468473,11.0805705 C67.2496076,11.1078304 67.252023,11.1350897 67.2525404,11.1625214 C67.2534029,11.2173855 67.2527129,11.272249 67.2527129,11.3485062 C67.1600652,11.9849618 67.0004767,12.6252126 66.6490373,13.1942093 L66.6490384,13.1942093 Z" id="e"></path>
            <path d="M80.0980279,21.6363873 C81.1011049,21.3651733 81.9958348,20.9002105 82.693365,20.0989913 C82.95647,19.7965498 83.123822,19.4646061 83.1800665,19.0696899 C83.2856533,18.3292004 83.0955278,17.6653131 82.7580635,17.0029787 C82.4426828,16.3839485 81.9433872,16.049417 81.332811,15.8240957 C81.0486579,15.7191988 80.7579486,15.6300013 80.4658584,15.5499484 C79.373412,15.2509576 78.2556042,15.0765321 77.1414191,14.8836457 C76.2178771,14.7237122 75.288297,14.5868973 74.3983983,14.2766923 C74.1653129,14.1954319 73.9374038,14.0941583 73.7181205,13.9806349 C73.5474907,13.8921279 73.4929716,13.7180468 73.5897595,13.5584589 C73.7464152,13.3001846 73.9061762,13.0384595 74.1016499,12.8096879 C75.2084165,11.5148661 76.6685198,10.9063603 78.3244423,10.8299307 C79.1941558,10.7899042 80.1054481,10.8737529 80.7548433,11.6264922 C80.8680217,11.7576135 81.0032838,11.8619924 81.1842654,11.7765912 C81.3450613,11.700679 81.4270116,11.5481641 81.4416767,11.3773613 C81.453236,11.2427897 81.4471979,11.0999361 81.4144174,10.9695054 C81.2748427,10.4146557 80.9881012,9.95607647 80.4936363,9.64587145 C79.8021447,9.21196368 79.048888,8.96576665 78.2333487,8.92418725 C76.7242474,8.84723955 75.3454044,9.27096795 74.0557584,10.0281929 C73.4281018,10.3967123 72.9120712,10.8982508 72.4538369,11.4505126 C71.5546219,12.5345056 71.5968913,13.922147 72.5292317,14.9966505 C72.6015207,15.0799813 72.6815736,15.1574464 72.7464441,15.2461253 C73.2453947,15.9270925 73.9646636,16.2994076 74.7374161,16.5085115 C75.8250318,16.8026716 76.9257597,17.0606009 78.0458109,17.2231222 C78.7272962,17.3219805 79.4023978,17.4674213 80.0783624,17.6018204 C80.2664176,17.6390865 80.450505,17.703094 80.6304512,17.7708972 C80.8219572,17.8430137 80.8293757,18.0224429 80.648739,18.1502859 C80.1202862,18.5239814 79.518509,18.7258387 78.8943032,18.8519568 C77.4700856,19.1397333 76.0451781,19.1349026 74.6257912,18.8067547 C74.2764221,18.7260118 73.9318837,18.6145588 73.5783739,18.5645254 C73.2001926,18.5108693 72.9117262,18.3291977 72.6437905,18.077652 C72.4847201,17.9282429 72.3149527,17.7829745 72.1282774,17.6723845 C71.9350466,17.5579986 71.6529633,17.7018871 71.6043109,17.9209974 C71.529606,18.2570818 71.5646294,18.5748778 71.7704549,18.8676574 C72.2678527,19.5753664 72.8408177,20.1940516 73.6296157,20.5924181 C74.6720293,21.118973 75.7805207,21.4441881 76.9066106,21.724546 C77.3651898,21.8387599 77.8280822,21.8960393 78.309435,21.8755086 C78.9138001,21.9043208 79.5126445,21.7947657 80.0980318,21.6363851 L80.0980279,21.6363873 Z" id="s"></path>
        </g>
        <g id="s" transform="translate(0.800397, 16.539341)" fill="#8E4DF4" fill-rule="nonzero">
            <path d="M90.7540722,0.949076477 C90.7257774,0.917331482 90.6579742,0.901114014 90.6124271,0.908533081 C90.502872,0.926303467 90.4102243,0.979787109 90.3714057,1.09555334 C90.2275172,1.09658826 90.0836293,1.09762372 89.9395683,1.09865863 C90.0755203,1.01239453 90.2188908,1.02774957 90.3679549,1.09365491 C90.4091888,0.918538879 90.4474904,0.742042969 90.4857915,0.566064514 C90.3788242,0.498261292 90.2744448,0.543118469 90.1716182,0.572793091 C89.6155606,0.732554077 89.1126422,1.00946118 88.6319794,1.31949371 C88.3576601,1.49633459 88.0824784,1.63056116 87.7577808,1.64902148 C87.6961881,1.91868256 87.4719022,1.94645929 87.2558973,1.98648578 C86.9869262,2.34844904 86.59132,2.5454762 86.2074456,2.73991498 C85.7423103,2.97558765 85.2761401,3.22506299 84.750965,3.31564032 C84.8762202,3.21022595 84.9887081,3.082383 85.1288008,3.00336493 C85.7038362,2.67935779 86.2843922,2.36449402 86.869952,2.05998212 C86.981405,2.00201276 87.1211522,1.99890747 87.2498581,1.97423602 C87.3761487,1.81292267 87.5331488,1.6975014 87.7331088,1.64591565 C87.9922461,1.44940649 88.2493124,1.25617566 88.5324306,1.0867533 C89.0584681,0.771890076 89.6205644,0.496362854 90.1522949,0 C89.6942337,0.0179428711 89.4338891,0.238433533 89.1549116,0.396124146 C86.9227462,1.65868286 84.6629761,2.86672357 82.3264307,3.92742444 C80.1406749,4.91980463 77.9033334,5.77347253 75.6087124,6.47911121 C72.8441254,7.32932886 70.0241575,7.9625061 67.2136784,8.63381195 C67.108609,8.6590014 67.0019867,8.6860882 66.9053713,8.73215332 C66.8775946,8.74543799 66.8765591,8.82738885 66.8753517,8.87828467 C66.8748343,8.89795294 66.9048544,8.92348682 66.9267655,8.93728894 C67.0287296,9.00146942 67.141908,8.99922656 67.2400764,8.94574292 C67.6639773,8.71472791 68.1115147,8.62397864 68.592695,8.67107867 C68.6974194,8.68125751 68.8074925,8.63036169 68.9156677,8.61207385 C69.8680214,8.4507605 70.790873,8.15987823 71.73115,7.95612305 C73.8394406,7.49926923 75.8788926,6.82641046 77.9038525,6.10507123 C80.00714,5.35578278 82.0760941,4.51902228 84.0580947,3.48212988 C84.2844509,3.36377582 84.5292681,3.33323822 84.7735672,3.29148633 C84.5798184,3.49368915 84.3439727,3.63222894 84.0967402,3.75920947 C83.6312599,3.99850598 83.1737161,4.25350195 82.7097888,4.49590375 C82.4171817,4.64876312 82.1228491,4.7992077 81.8223055,4.93567712 C80.4657192,5.55160144 79.0772149,6.08592041 77.6749084,6.58901184 C75.8300677,7.25100128 73.9558974,7.81741022 72.0579185,8.29600269 C69.6019842,8.91537781 67.1362155,9.49282855 64.6328361,9.9018924 C62.2712749,10.2878372 59.9181671,10.7276105 57.5388355,10.9974441 C57.6128499,10.8261238 57.7645019,10.7878222 57.9320263,10.7591825 C59.2625613,10.5314458 60.5953391,10.3149229 61.9217334,10.0645851 C63.328353,9.79923724 64.7287622,9.50041901 66.1321035,9.21695581 C66.2425211,9.19469971 66.3458651,9.16157428 66.4098731,9.06081757 C66.4235027,9.0392514 66.4331646,9.00319318 66.4245382,8.98197198 C66.4059054,8.93625183 66.3746773,8.85947717 66.347936,8.8591322 C66.157638,8.85671686 65.9635442,8.85016077 65.7770413,8.88225128 C64.5022329,9.10170703 63.2307022,9.34048553 61.9546863,9.55338519 C60.406766,9.81165948 58.8579832,10.0678634 57.3048872,10.2926673 C55.9422622,10.4898664 54.5727357,10.6384131 53.2078679,10.8195677 C52.9930709,10.848035 52.7856924,10.9342991 52.5760711,10.9974446 C52.5562303,11.0034833 52.5279356,11.039024 52.5315589,11.0542061 C52.5431181,11.102859 52.5555404,11.1732501 52.5898737,11.190158 C52.6871796,11.2377755 52.7943194,11.2669332 52.8995613,11.2957449 C53.0056662,11.324902 53.1392028,11.3399121 53.1093557,11.4862159 C53.0979689,11.5424604 52.9932445,11.5923208 52.9214724,11.6218229 C52.5758991,11.7638135 52.2177311,11.6915246 51.8624964,11.6735817 C51.646664,11.6627124 51.4908712,11.5880076 51.454295,11.3506089 C51.4156484,11.1000987 51.2263858,11.0611071 51.0224576,11.0692161 C50.2786898,11.0988907 49.5340595,11.1195939 48.7916721,11.1716977 C46.0917837,11.3611333 43.3908597,11.3259375 40.6906262,11.207066 C39.2313853,11.1428855 37.7738698,11.039369 36.3161818,10.943961 C35.326562,10.8792631 34.3374596,10.8045588 33.3490476,10.7232984 C31.7564431,10.5923496 30.1662534,10.4279304 28.572268,10.3214806 C25.8211381,10.1379106 23.0670761,10.0678645 20.3078378,10.0947788 C18.6248285,10.1111688 16.9480297,10.1848381 15.2769246,10.3440817 C13.4398479,10.5190252 11.6215766,10.8476906 9.83522323,11.3121354 C7.61737746,11.8887237 5.46336666,12.6471561 3.45583218,13.7742808 C3.2308558,13.9005714 2.96585293,13.9807969 2.81558083,14.2162976 C2.93427987,14.1881754 3.06005245,14.1723029 3.16305147,14.1157139 C4.94992281,13.134548 6.82564608,12.3752527 8.79142922,11.8374835 C8.67186721,12.1435477 8.3709786,12.1557969 8.12202071,12.2510325 C7.19709878,12.6048873 6.26493081,12.9407992 5.34932528,13.3170826 C4.43147689,13.6942284 3.56090157,14.170923 2.70550826,14.6741869 C2.52504409,14.7802917 2.36045241,14.9383273 2.12581466,14.9124479 C2.0373077,15.1382873 1.86978323,15.2468069 1.62617348,15.2419763 C1.45640615,15.6029046 1.13205349,15.7702566 0.781131492,15.9048287 C0.731788596,15.9543441 0.682273215,16.0038594 0.63293032,16.0533748 C0.570820212,16.0540648 0.50853762,16.0547547 0.446427512,16.0554446 L0.463335471,16.0787357 C0.077045188,16.2900824 -0.0387204981,16.6318605 0.0107948828,17.0442021 C0.0427123632,17.3097224 0.267516257,17.3813214 0.47403231,17.4477448 C0.653634055,17.5055416 0.696421409,17.3476785 0.754390769,17.2269091 C1.06045504,16.5883837 1.55923324,16.1242839 2.1458279,15.7599047 C2.72258871,15.4015642 3.32488338,15.0844576 3.91596432,14.7494086 L3.90233468,14.7714922 C4.02344906,14.7019636 4.14473647,14.632262 4.26585085,14.5627333 L4.2477355,14.5872323 C4.36626205,14.5220169 4.48496108,14.4566285 4.60348763,14.3914131 L4.58312942,14.4148766 C4.97131704,14.2038748 5.457673,14.1961113 5.77564205,13.8393237 L5.77909286,13.8633052 C5.85862838,13.7760062 5.96680361,13.7252834 6.07428835,13.7468491 C6.44798391,13.8218989 6.78475826,13.6978517 7.11825484,13.5682828 C7.86633535,13.2779185 8.64650637,13.1112565 9.42443453,12.9275145 C12.2804613,12.2534478 15.1811727,11.9568724 18.1074185,11.8711258 C18.9892087,11.8452464 19.8720338,11.8564607 20.7545139,11.8499046 C20.9474003,11.8485242 21.1409766,11.851975 21.3330001,11.8371374 C21.4430732,11.8286834 21.5714336,11.7850336 21.5757468,11.6561552 C21.5850633,11.3718296 21.7755343,11.348883 21.9729059,11.3775227 C22.4018105,11.4398053 22.8612522,11.388737 23.2297715,11.7010124 C23.3357039,11.7907267 23.4737262,11.8147083 23.6176147,11.8160887 C23.9745748,11.819712 24.3313624,11.8404152 24.688495,11.8449009 C25.0126751,11.8488691 25.3196024,11.8171241 25.6453349,11.7165399 C25.9583008,11.619924 26.2602243,12.0638381 26.6523802,11.9465189 C26.7295004,11.9233998 26.8167994,11.928576 26.8990952,11.930129 C27.1963611,11.9356501 27.5200233,11.8711247 27.7855436,11.9668777 C28.6053961,12.2622457 29.4633773,12.2762203 30.3070388,12.3712828 C32.3597755,12.6024703 34.4194137,12.7708572 36.4723228,13.0001468 C39.1038906,13.2941343 41.7404616,13.4997874 44.3865215,13.6093425 C46.6478446,13.7028527 48.9038189,13.6797341 51.157378,13.4678699 C51.3214522,13.4525149 51.491565,13.4554477 51.6477027,13.410763 C51.9723998,13.3175978 52.2920943,13.3282947 52.6267982,13.3431323 C53.2308183,13.3697016 53.840359,13.3564169 54.4431717,13.306556 C55.2373179,13.2409951 56.0249074,13.0795093 56.819398,13.0406907 C57.8057401,12.9925552 58.7518827,12.6587137 59.7430555,12.6794169 C60.0318674,12.365761 60.3952111,12.4913617 60.7414743,12.5055088 C60.7885744,12.5074067 60.8546522,12.4779045 60.8829469,12.4408109 C61.1008498,12.1564852 61.3777569,12.2836382 61.6425872,12.3229742 L61.637929,12.319179 C61.8327133,12.1454434 62.0756326,12.1031741 62.3214846,12.0550386 C63.9953501,11.7267177 65.6707684,11.4047809 67.3404931,11.0567922 C68.6056402,10.7931698 69.8654391,10.5024606 71.1224772,10.2026069 C71.3450382,10.1494682 71.6160792,10.1270396 71.7451301,9.87325104 C71.532231,9.9165553 71.3193319,9.95986011 71.1066052,10.0031644 C71.1133338,9.88757062 71.1676799,9.79906366 71.2787879,9.75731177 C71.5355093,9.6606958 71.7879174,9.53837347 72.0537833,9.48281946 C73.0777365,9.26922986 74.0799511,8.98162592 75.0816477,8.68315265 C76.7955396,8.17229773 78.4963194,7.62918036 80.149999,6.94234698 C80.5271449,6.78569128 80.89946,6.59142499 81.3206005,6.55950751 C81.3206005,6.55950751 81.3019677,6.58176361 81.3040381,6.57969379 C81.3074889,6.5841795 81.3097318,6.58745782 81.3128371,6.59177106 C81.31439,6.58469751 81.3155979,6.57796893 81.3171508,6.57089539 C81.8673423,6.19029877 82.4622185,5.91615253 83.115064,5.77295398 L83.0941878,5.79900586 C83.0941878,5.79900586 83.0943603,5.79900586 83.0943603,5.79883337 L83.0941878,5.79900586 C83.1003989,5.79900586 83.1067825,5.79900586 83.1131661,5.79900586 C83.1136836,5.79279474 83.1140285,5.78658362 83.114546,5.78037305 C83.1921836,5.70877405 83.2698212,5.63700201 83.3474589,5.56540302 C83.3781684,5.63406921 83.4114669,5.7041153 83.4449373,5.77433441 C83.7054544,5.79538312 83.9238747,5.66788458 84.1438479,5.5626427 C85.5810052,4.8761543 86.913783,4.00954669 88.2584657,3.16381476 C88.3200583,3.12516815 88.3511134,3.03769666 88.3954531,2.9714458 C88.3136747,2.91192352 88.3214382,2.85240125 88.4190891,2.79287897 L88.3957981,2.81358215 C88.3957981,2.81358215 88.3957981,2.81358215 88.3959705,2.81358215 C88.403734,2.81375464 88.4114975,2.81375464 88.4190891,2.81392712 C88.4190891,2.80978638 88.4190891,2.80564563 88.4190891,2.80150488 C88.5307146,2.74370801 88.6425125,2.68573865 88.754138,2.62794177 C88.7539655,2.62811426 88.7401629,2.64398676 88.7332618,2.65209521 C88.7310189,2.65485553 88.729466,2.65658038 88.729466,2.65658038 C88.7377475,2.64829889 88.7460285,2.64001794 88.75431,2.63173645 C88.75431,2.68573755 88.7541375,2.73991168 88.7541375,2.79391278 C88.8262539,2.77648737 88.9102752,2.77389954 88.9622059,2.73180267 C89.0998833,2.62034967 89.0950526,2.52235382 88.9025117,2.48284479 C88.9092403,2.47611621 88.9159688,2.46938763 88.9225249,2.46265906 C88.9225249,2.46265906 88.9223524,2.46265906 88.9225249,2.46265906 C88.9225249,2.46265906 88.9164863,2.46748975 88.9106207,2.47214795 C88.9045821,2.47697864 88.8987165,2.48180933 88.8987165,2.48180933 C89.0277674,2.31773511 89.1870103,2.19834558 89.3923184,2.14675983 C89.6254038,1.88814056 89.9318131,1.73131293 90.2225228,1.55153925 C90.4285209,1.42421375 90.650047,1.31120782 90.7785805,1.09278754 C90.7982487,1.05966211 90.7823762,0.980989563 90.7540815,0.949072083 L90.7540722,0.949076477 Z M8.79695479,11.8361003 C8.79781722,11.8359278 8.79867965,11.8355828 8.79954262,11.8354103 C9.03159255,11.8505923 9.26139962,11.7339637 9.49776278,11.8235056 C9.26571285,11.8642225 9.0340079,11.9109776 8.79695425,11.8361003 L8.79695479,11.8361003 Z M9.71031692,11.7351716 C9.64527401,11.7701949 9.5738475,11.7933135 9.50483633,11.8205733 C9.54900301,11.7617415 9.58281838,11.6922123 9.63664699,11.6461472 C9.66373379,11.6228562 9.72981216,11.6451123 9.77811959,11.6466652 C9.75603597,11.6772028 9.74016347,11.7191272 9.71031637,11.7351722 L9.71031692,11.7351716 Z M19.8991233,10.4424208 C19.8849762,10.4498394 19.8513333,10.4439738 19.841327,10.4317245 C19.8000931,10.3813467 19.8157931,10.3478763 19.8801461,10.3483938 C19.8956736,10.3485663 19.9108556,10.3742732 19.9262107,10.3880753 C19.9177567,10.4070536 19.9137884,10.4346579 19.8991239,10.4424214 L19.8991233,10.4424208 Z M20.8430236,10.5576702 C20.8228379,10.5159183 20.7814315,10.4695082 20.789195,10.4336224 C20.7952336,10.4051552 20.8614839,10.3898002 20.9009929,10.368407 C20.9204887,10.4115388 20.9577544,10.4569135 20.9525787,10.496595 C20.9491279,10.5214389 20.8816696,10.5376564 20.843023,10.5576696 L20.8430236,10.5576702 Z M21.4777532,10.5883802 C21.4627431,10.5978691 21.4235791,10.5947639 21.4134002,10.5823416 C21.3676801,10.5267876 21.3847605,10.4881415 21.4560145,10.4853812 C21.4736124,10.4846913 21.4922453,10.5116056 21.5103606,10.5259252 C21.5000087,10.5474913 21.4948331,10.5775109 21.4777526,10.5883802 L21.4777532,10.5883802 Z M53.8403596,11.3540592 C53.8401871,11.3450878 53.8400146,11.3359438 53.8396696,11.3267999 C54.0242746,11.3267999 54.2088795,11.3267999 54.3936569,11.3267999 C54.3940019,11.3359438 54.3943468,11.3449153 54.3945193,11.3540592 C54.2099144,11.3540592 54.025137,11.3540592 53.8403596,11.3540592 Z M55.3254788,11.1982665 C56.0425053,11.0171124 56.7578059,10.8166349 57.5100272,11.0005494 C56.7819594,11.0685251 56.0675212,11.2852205 55.3254788,11.1982665 L55.3254788,11.1982665 Z M63.2693526,11.5257244 C63.5757624,11.4484323 63.8390399,11.1891231 64.2496561,11.3388772 C63.9147796,11.5871446 63.5885296,11.5309006 63.2693532,11.5257244 L63.2693526,11.5257244 Z M71.0943555,10.0064438 C70.8928432,10.0654481 70.6913308,10.1246254 70.4896455,10.1836302 C70.6908134,9.90102942 70.6947811,9.89861407 71.094356,10.0064438 L71.0943555,10.0064438 Z M70.4863677,10.1841476 C70.2486247,10.1772466 70.0226128,10.219171 69.8176497,10.3466689 C69.9748223,10.018866 70.2387902,10.1361852 70.4863677,10.1841482 L70.4863677,10.1841476 Z M68.0583831,9.72677692 C68.115835,9.68726788 68.1919198,9.65120966 68.2579976,9.65448798 C68.322868,9.6577663 68.3239029,9.71901343 68.219351,9.7997569 C68.203651,9.8056225 68.1353297,9.85168762 68.0694244,9.84840985 C68.0187011,9.84599451 68.0073143,9.76180078 68.0583826,9.72677802 L68.0583831,9.72677692 Z M66.1226201,11.0321235 C66.1024344,11.039887 66.0765556,11.0416119 66.0555069,11.0359182 C66.0365285,11.0307426 66.0208285,11.0126272 66.0037481,11.0000325 C66.0475703,10.9952018 66.0912201,10.9905436 66.1350424,10.9857129 C66.1312472,11.0021028 66.1314196,11.0286722 66.1226207,11.032123 L66.1226201,11.0321235 Z M67.0208008,10.8212937 C67.1769385,10.7348571 67.3227243,10.7793693 67.4678202,10.8395815 C67.3215164,10.8014529 67.1671041,10.9534499 67.0208003,10.8212937 L67.0208008,10.8212937 Z M67.4831747,10.832163 C67.5485631,10.7303714 67.621887,10.6487661 67.7561135,10.6227142 C67.8722248,10.6002856 67.9821254,10.5466295 68.0946133,10.5057405 C67.9619391,10.7481423 67.6741627,10.7025952 67.4831742,10.8321636 L67.4831747,10.832163 Z M68.3173463,10.5678506 C68.2438494,10.5568088 68.1732853,10.5262712 68.1016863,10.5031522 C68.1016863,10.5031522 68.1018588,10.5031522 68.1018588,10.5029797 C68.1775985,10.496941 68.2536832,10.4852093 68.3292505,10.4872797 C68.3670341,10.4883146 68.4041278,10.514194 68.4415665,10.5288591 C68.3999871,10.5431786 68.3559923,10.5737162 68.3173457,10.5678506 L68.3173463,10.5678506 Z M69.1796401,10.3485674 C69.5003695,10.2650641 69.6573696,10.2992245 69.8164401,10.3471875 C69.8155777,10.347705 69.8145422,10.3480499 69.8136798,10.3485674 C69.6589225,10.3485674 69.5043372,10.3485674 69.1796401,10.3485674 Z M71.6442014,9.07237903 C71.5920977,9.06496051 71.507559,9.0597843 71.4963447,9.03079962 C71.4568357,8.929526 71.5603527,8.90916779 71.6203924,8.88639423 C71.7684211,8.83014972 71.9224884,8.77252533 72.0772457,8.88242542 C71.953371,8.99784668 71.8257,9.09843091 71.6442003,9.07237903 L71.6442014,9.07237903 Z M73.7445545,8.36708478 C73.489386,8.72611523 73.1058566,8.65589667 72.7328515,8.61535217 C73.0703158,8.53253888 73.4079531,8.44972559 73.7455905,8.36673926 C73.9734997,8.31929425 74.2012369,8.26425769 74.4317339,8.35241968 C74.2024443,8.35103925 73.97557,8.45817902 73.744555,8.36708423 L73.7445545,8.36708478 Z M79.5713387,6.64266797 C79.2920163,6.75429346 79.0142462,6.87005969 78.7333708,6.97771692 C77.327786,7.51634912 75.8863161,7.94283838 74.4388075,8.35052124 C74.4765911,8.1697121 74.6071949,8.083966 74.7702337,8.02996436 C75.2377843,7.87486212 75.7025741,7.71044293 76.1734025,7.56620947 C77.2456632,7.23771606 78.3189594,6.91405389 79.3651682,6.50706042 C79.4850752,6.46047784 79.6186118,6.44857361 79.7467997,6.42286725 C79.7449018,6.53708112 79.6743377,6.60143408 79.5713387,6.64266797 Z M79.7766468,6.41217096 C80.0504486,6.2679375 80.3004414,6.03882037 80.6482576,6.16028027 C80.3785965,6.31986877 80.1201497,6.52000122 79.7766468,6.41217096 Z M80.6848333,6.14854852 C80.9320663,5.76933234 81.3093846,5.64856293 81.732595,5.61888831 C81.4620709,5.95083197 81.0869955,6.07625958 80.6848333,6.14854852 L80.6848333,6.14854852 Z M81.7795225,5.60094489 C81.8797613,5.46844373 82.0091571,5.45050085 82.1573588,5.5057099 C82.0426281,5.58507239 81.9180629,5.62320099 81.7795231,5.60094489 L81.7795225,5.60094489 Z M82.6580349,5.04540527 C82.6732169,5.38787329 82.417876,5.43635321 82.1758197,5.49898077 C82.1754748,5.38873572 82.2417251,5.31989703 82.3319574,5.26261761 C82.4432379,5.19188104 82.5512407,5.11596881 82.6606233,5.04229889 C82.7229059,5.05213275 82.785361,5.06179468 82.8476441,5.07162854 C82.7844991,5.06282959 82.7213535,5.05403064 82.658036,5.04540417 L82.6580349,5.04540527 Z M83.3571186,5.55815698 C83.469952,5.5198559 83.5827849,5.48138177 83.6956184,5.44308069 C83.6186707,5.57282208 83.4966939,5.58524377 83.3571186,5.55815698 Z M83.748757,5.41702936 C83.8326058,5.35267639 83.916627,5.28832343 84.0004752,5.22397046 C84.0044435,5.22604083 84.0089292,5.22914612 84.0134149,5.23190643 C84.0068588,5.23311438 84.0022006,5.23328687 83.9947821,5.23501172 C83.9513048,5.35457373 83.8731497,5.4206521 83.748757,5.41702881 L83.748757,5.41702936 Z M85.4467765,3.74678668 C85.5180305,3.69589087 85.5906649,3.645685 85.6638163,3.5958241 C85.6270681,3.70141095 85.5511559,3.74592316 85.4467765,3.74678613 L85.4467765,3.74678668 Z M85.701255,3.57598334 C85.8106376,3.55562512 85.9198477,3.53509442 86.0292304,3.51473621 C85.9327874,3.58892303 85.8235773,3.60824579 85.701255,3.57598334 Z M86.2900925,3.22799469 C86.3642793,3.1955592 86.4388111,3.16381421 86.5136884,3.13258667 C86.4595143,3.21453754 86.3784264,3.23041003 86.2900919,3.22799469 L86.2900925,3.22799469 Z M86.5713128,3.10066864 C86.6468801,3.03769611 86.7226198,2.97489606 86.7981871,2.91209601 C86.8169929,2.91330396 86.8339009,2.91037115 86.8516713,2.90950818 C86.8339009,2.91140607 86.8168205,2.91485687 86.7980146,2.91485687 C86.7681675,3.04252789 86.6972584,3.11015863 86.5713134,3.10066974 L86.5713128,3.10066864 Z M87.8116165,2.4492052 C87.8773494,2.39209827 87.9429103,2.33499133 88.0084712,2.27805743 C87.9846622,2.38623267 87.9068521,2.42832953 87.8116165,2.4492052 Z M88.035385,2.26201245 C88.1385565,2.24148175 88.2415555,2.22077856 88.344727,2.20024786 C88.2519074,2.26166803 88.1521861,2.2954834 88.0353844,2.262013 L88.035385,2.26201245 Z M88.7834655,1.74408398 C88.783638,1.74322156 88.7843279,1.74287659 88.7845004,1.74201416 C88.9106179,1.72890198 89.0365636,1.71561786 89.1626811,1.70250568 C89.0434641,1.75805969 88.9144132,1.75478137 88.7834644,1.74408453 L88.7834655,1.74408398 Z M89.4608089,1.4276684 C89.5291301,1.4064472 89.5976238,1.38557098 89.66629,1.36469531 C89.6052154,1.41041547 89.5360317,1.42922076 89.4608094,1.42766785 L89.4608089,1.4276684 Z M73.7692259,9.47799152 C73.9160472,9.39086499 74.1134188,9.38154858 74.2046861,9.20850293 C74.070977,9.31719562 73.8487609,9.29424902 73.7692259,9.47799097 L73.7692259,9.47799152 Z M72.4238528,9.74730652 C72.2081928,9.78733301 71.9927053,9.8273595 71.7770454,9.8672135 C72.0103032,9.90430664 72.2380399,9.92639026 72.4238523,9.74730597 L72.4238528,9.74730652 Z M89.7480673,2.2133584 C89.6331635,2.19938379 89.5184327,2.18540918 89.4035294,2.17143457 C89.4908285,2.40935065 89.6243645,2.27081085 89.7480667,2.21335895 L89.7480673,2.2133584 Z M77.6150439,8.35466144 C77.6150439,8.35466144 77.613146,8.35673181 77.6133191,8.35673181 C77.7113149,8.27788623 77.8091383,8.19921368 77.9069616,8.12036865 C77.765489,8.13434326 77.6421312,8.17488721 77.6150445,8.35466144 L77.6150439,8.35466144 Z M77.1148853,8.51010974 L77.1128149,8.51321503 C77.2494568,8.36415088 77.4247453,8.338617 77.6133185,8.35673236 C77.613146,8.35673236 77.6150434,8.35466199 77.6148709,8.35483447 C77.4297485,8.34758844 77.2146065,8.2430365 77.1148853,8.51010974 Z M76.6218002,8.68746863 C76.6218002,8.68746863 76.6200753,8.689539 76.6200753,8.68936652 C76.7308384,8.5475484 76.8780047,8.50786688 77.0400085,8.50976477 C76.8754168,8.4994129 76.6947802,8.44368695 76.6218007,8.68746863 L76.6218002,8.68746863 Z M76.1188823,8.84377936 L76.116122,8.84930054 C76.2510391,8.69143744 76.4299503,8.67263159 76.6200759,8.68936707 C76.6199034,8.68936707 76.6218007,8.68746918 76.6214558,8.68764221 C76.4347805,8.67815332 76.2182581,8.57239343 76.1188818,8.84377991 L76.1188823,8.84377936 Z M75.7808995,8.82583704 C75.780727,8.83377301 75.780382,8.8415365 75.7802096,8.84947247 C75.89218,8.84947247 76.004151,8.84947247 76.1161215,8.84947247 C76.1161215,8.84947247 76.1188818,8.84395129 76.1185368,8.84412378 C76.0058764,8.83808514 75.893388,8.83187457 75.7809,8.82583594 L75.7808995,8.82583704 Z M75.0690503,9.0099234 C75.0590439,9.00802551 75.0385132,9.04287634 75.0281613,9.06323456 C75.0153941,9.08842401 75.0043523,9.11464838 74.9927931,9.14052722 C75.0093555,9.11430286 75.0267809,9.08963141 75.0504174,9.07910706 C75.1337482,9.0416684 75.14479,9.02493292 75.0690497,9.00992285 L75.0690503,9.0099234 Z M74.228149,9.19159497 C74.4741735,9.27164795 74.7164029,9.18555634 74.9584591,9.1924574 L74.9674306,9.1959082 C74.9757121,9.17744788 74.984511,9.15933252 74.99262,9.14069971 C74.9814057,9.15847009 74.9705364,9.17675793 74.9584597,9.19245795 C74.7113997,9.10050073 74.4674455,9.15381189 74.2281496,9.19159552 L74.228149,9.19159497 Z M73.4445277,9.5338905 C73.4497034,9.54734766 73.4907648,9.55614661 73.512331,9.55200641 C73.5834125,9.5380318 73.6536311,9.51836353 73.7238496,9.50024817 C73.6569088,9.48126984 73.5920384,9.46125659 73.52596,9.45194019 C73.455396,9.44193384 73.422616,9.47816455 73.4445272,9.53389105 L73.4445277,9.5338905 Z M72.7406134,9.68864832 C72.6967911,9.67846948 72.6496911,9.65345251 72.6098371,9.66207898 C72.5663598,9.67156787 72.5275412,9.70245044 72.4876872,9.72798431 C72.5303015,9.73454041 72.5725709,9.74178699 72.6132879,9.73747321 C72.6569376,9.73264252 72.6981715,9.70572821 72.7406134,9.68864777 L72.7406134,9.68864832 Z M78.0498141,8.01443738 C78.0320437,8.03099982 78.0170337,8.05066809 78.0013331,8.06947394 C78.0348035,8.05549933 78.0684464,8.0416972 78.1019168,8.0277226 C78.0838014,8.02271942 78.0568871,8.00788184 78.0498136,8.01443793 L78.0498141,8.01443738 Z M79.2035077,7.54878625 L79.1909129,7.552927 C79.1796986,7.58225665 79.1684843,7.6115863 79.15727,7.64091595 C79.1719351,7.6115863 79.1867727,7.58225665 79.2014373,7.552927 C79.2657902,7.54895874 79.3273829,7.54447302 79.3888031,7.54015979 C79.3270385,7.54309259 79.2652733,7.54602539 79.2035087,7.54878571 L79.2035077,7.54878625 Z M80.0187036,7.22702142 L80.0247423,7.21235632 C80.0052465,7.25272778 79.9857512,7.29309924 79.966083,7.3334707 C79.9836809,7.29792993 80.0012788,7.26238916 80.0187036,7.22702087 L80.0187036,7.22702142 Z M80.8288948,6.87092487 C80.817508,6.90577515 80.8061212,6.94062598 80.7947345,6.97547626 C80.8047408,6.96236407 80.8195784,6.95063232 80.8238916,6.93596722 C80.8297572,6.91543652 80.8287223,6.89283545 80.8347604,6.87264972 C80.9783034,6.89145557 81.1232268,6.92837622 81.2251909,6.79742743 C81.0937246,6.82123645 80.9622584,6.84504492 80.8351054,6.87075183 C80.8401085,6.87264972 80.8288942,6.87092432 80.8288942,6.87092432 L80.8288948,6.87092487 Z M81.3124904,6.59211877 C81.3004137,6.64819025 81.2888545,6.70374426 81.2776402,6.75895331 C81.3978921,6.71823633 81.3965117,6.70650458 81.3124904,6.59211877 Z M82.3343755,6.25310321 C82.2722654,6.31210748 82.2123982,6.37232025 82.1530484,6.43270496 C82.2405199,6.40303033 82.301767,6.34419855 82.334375,6.25310376 L82.3343755,6.25310321 Z M82.3599088,6.2286048 C82.5148386,6.2525863 82.5990323,6.17736401 82.6378509,6.03623639 C82.5803989,6.15441797 82.4824031,6.21169739 82.3599083,6.22860535 L82.3599088,6.2286048 Z M82.6392307,6.03192371 C82.6388858,6.03347662 82.6381958,6.03468457 82.6378509,6.036065 C82.6387133,6.03451208 82.6397487,6.03347662 82.6406112,6.03175177 C82.7848446,6.02743854 82.954267,6.14268732 83.0603718,5.96498401 C82.9202791,5.98724011 82.7803589,6.00932373 82.6407837,6.03140735 C82.6414736,6.03140735 82.6392307,6.0319248 82.6392307,6.0319248 L82.6392307,6.03192371 Z M83.1031587,5.93479138 C83.2261709,5.92236914 83.3509086,5.91443317 83.4278557,5.7990119 C83.3227863,5.79918439 83.2178894,5.79935687 83.11282,5.79952991 C83.1095417,5.84473206 83.1064364,5.88976172 83.1031581,5.93479138 L83.1031587,5.93479138 Z M88.4187425,2.96696667 C88.5441701,2.96541376 88.649585,2.92400684 88.7235993,2.8194549 C88.6219802,2.81773004 88.520361,2.81617712 88.4187425,2.81445227 C88.4189149,2.86534808 88.4189149,2.9162439 88.4187425,2.96696722 L88.4187425,2.96696667 Z"></path>
        </g>
    </g>
</svg>