<svg xmlns="http://www.w3.org/2000/svg" width="13" height="13" viewBox="0 0 13 13">
  <path fill="#1B1D21" fill-rule="evenodd" d="M12.4801,2.08058 C12.773,1.78769 12.773,1.31281 12.4801,1.01992 C12.1872,0.72703 11.7123,0.72703 11.4194,1.01992 L6.8232,5.6161 L2.22705,1.01992 C1.93415,0.72703 1.45928,0.72703 1.16639,1.01992 C0.8735,1.31281 0.87349,1.78769 1.16639,2.08058 L5.7626,6.6768 L1.16639,11.273 C0.8735,11.5659 0.87349,12.0407 1.16639,12.3336 C1.45928,12.6265 1.93416,12.6265 2.22705,12.3336 L6.8232,7.7374 L11.4194,12.3336 C11.7123,12.6265 12.1872,12.6265 12.4801,12.3336 C12.773,12.0407 12.773,11.5659 12.4801,11.273 L7.8839,6.6768 L12.4801,2.08058 Z"/>
</svg>
