<svg xmlns="http://www.w3.org/2000/svg" width="18" height="18" viewBox="0 0 18 18">
  <path fill="#11142D" d="M10.7928932,-0.207106781 C11.1834175,-0.597631073 11.8165825,-0.597631073 12.2071068,-0.207106781 L12.2071068,-0.207106781 L16.2071068,3.79289322 C16.5976311,4.18341751 16.5976311,4.81658249 16.2071068,5.20710678 L16.2071068,5.20710678 L6.20710678,15.2071068 C6.06750624,15.3467073 5.88970726,15.4418625 5.69611614,15.4805807 L5.69611614,15.4805807 L0.696116135,16.4805807 C-0.00360500022,16.6205249 -0.620524903,16.003605 -0.480580676,15.3038839 L-0.480580676,15.3038839 L0.519419324,10.3038839 C0.558137549,10.1102927 0.653292673,9.93249376 0.792893219,9.79289322 L0.792893219,9.79289322 Z M8.99944404,4.414 L2.421,10.993 L1.774,14.225 L5.006,13.579 L11.585444,7 L8.99944404,4.414 Z M11.5,1.915 L10.414444,3 L12.999444,5.585 L14.085,4.5 L11.5,1.915 Z" transform="translate(1 1)"/>
</svg>
