<svg xmlns="http://www.w3.org/2000/svg" width="20" height="22" viewBox="0 0 20 22"><path fill="#1b1d21" d="M12.837 19.268a.75.75 0 0 1 .114 1.055c-.192.24-.414.452-.65.627a3.84 3.84 0 0 1-2.798.774 3.81 3.81 0 0 1-2.536-1.405.75.75 0 0 1 1.173-.935 2.31 2.31 0 0 0 1.538.849c.6.072 1.224-.098 1.715-.48a2.14 2.14 0 0 0 .388-.374.75.75 0 0 1 1.055-.114zM10.04.25c3.664 0 7.027 2.626 7.364 6.112l.01.13.014.264.006.3v.723l.005.332.01.21.048.2c.153.56.422 1.084.79 1.54h0l.164.19.067.085a4.28 4.28 0 0 1 .73 2.23h0l-.001.434c-.03.968-.39 1.904-1.05 2.683-.873.916-2.057 1.485-3.315 1.6a45.8 45.8 0 0 1-9.766.001c-1.267-.12-2.447-.688-3.36-1.64-.672-.8-1.03-1.83-1.007-2.86h0l.001-.256a4.35 4.35 0 0 1 .726-2.197h0l.073-.093a4.12 4.12 0 0 0 1.01-1.957l-.016.065.003-.563.013-.652.046-.778C2.933 2.878 6.295.25 9.96.25h0zm0 1.5H9.96c-2.936 0-5.61 2.09-5.86 4.742l-.03.454-.017.502-.007.988-.016.152a5.62 5.62 0 0 1-1.377 2.67l.044-.05.01-.01-.096.157c-.18.32-.295.667-.34 1h0l-.02.205v.235c-.015.685.22 1.353.625 1.844a3.81 3.81 0 0 0 2.392 1.145 44.36 44.36 0 0 0 9.467-.001c.91-.083 1.755-.49 2.347-1.108a2.83 2.83 0 0 0 .667-1.906h0v-.176a2.76 2.76 0 0 0-.473-1.422l.017.027-.15-.174c-.517-.63-.893-1.362-1.102-2.147h0l-.07-.296-.014-.1-.007-.107-.013-.324-.003-.972-.002-.172-.012-.286-.01-.13c-.257-2.658-2.935-4.75-5.87-4.75h0z"/></svg>