<svg xmlns="http://www.w3.org/2000/svg" width="10" height="10" viewBox="0 0 10 10">
  <path fill="#11142D" d="M1.61289944,0.209704612 L1.70710678,0.292893219 L5,3.585 L8.29289322,0.292893219 C8.68341751,-0.0976310729 9.31658249,-0.0976310729 9.70710678,0.292893219 C10.0675907,0.65337718 10.0953203,1.22060824 9.79029539,1.61289944 L9.70710678,1.70710678 L6.415,5 L9.70710678,8.29289322 C10.0976311,8.68341751 10.0976311,9.31658249 9.70710678,9.70710678 C9.34662282,10.0675907 8.77939176,10.0953203 8.38710056,9.79029539 L8.29289322,9.70710678 L5,6.415 L1.70710678,9.70710678 C1.31658249,10.0976311 0.683417511,10.0976311 0.292893219,9.70710678 C-0.0675907428,9.34662282 -0.0953202783,8.77939176 0.209704612,8.38710056 L0.292893219,8.29289322 L3.585,5 L0.292893219,1.70710678 C-0.0976310729,1.31658249 -0.0976310729,0.683417511 0.292893219,0.292893219 C0.65337718,-0.0675907428 1.22060824,-0.0953202783 1.61289944,0.209704612 Z"/>
</svg>
